<?xml version="1.0" encoding="UTF-8"?>
<!DOCTYPE svg PUBLIC "-//W3C//DTD SVG 1.1//EN" "http://www.w3.org/Graphics/SVG/1.1/DTD/svg11.dtd">
<!-- Creator: CorelDRAW 2020 (64 Bit) -->
<svg xmlns="http://www.w3.org/2000/svg" xml:space="preserve" width="105.528mm" height="60.5082mm" version="1.1" style="shape-rendering:geometricPrecision; text-rendering:geometricPrecision; image-rendering:optimizeQuality; fill-rule:evenodd; clip-rule:evenodd"
viewBox="0 0 10525.97 6035.45"
 xmlns:xlink="http://www.w3.org/1999/xlink"
 xmlns:xodm="http://www.corel.com/coreldraw/odm/2003">
 <defs>
  <style type="text/css">
   <![CDATA[
    .fil0 {fill:#273296;fill-rule:nonzero}
    .fil1 {fill:#278FCF;fill-rule:nonzero}
   ]]>
  </style>
 </defs>
 <g id="Camada_x0020_1">
  <metadata id="CorelCorpID_0Corel-Layer"/>
  <g id="_2031588698032">
   <path class="fil0" d="M10233.92 936.31l275.04 0 0 2183.28 -275.04 0 0 -2183.28zm-1473.88 1470.3l745.26 -412.07c-43.65,-43.06 -78.89,-72.13 -106.38,-86.21 -63.89,-35.75 -144.3,-53.42 -241.89,-53.42 -150,0 -269.83,56.05 -359.15,168.65 -80.95,101.19 -121.44,226.32 -121.44,374.25 0,128.63 42.55,240.78 127.75,335.75 93.36,103.27 214.8,155.13 364.81,155.13 150.97,0 266.2,-41.49 345.65,-124.53 70.51,-72.14 121.36,-187.36 151.98,-345.14l275.05 37.89c0,160.88 -65.35,310.89 -196.1,449.97 -156.23,166.12 -354.51,249.11 -595.88,249.11 -202.82,0 -380.37,-73.68 -532.4,-220.61 -152.08,-146.82 -227.84,-323.31 -227.84,-528.75 0,-259.53 85.61,-465.09 256.9,-617.06 146.88,-130.8 317.1,-196.25 510.67,-196.25 169.72,0 313.46,38.41 431.78,115.8 116.79,78.84 216.42,198.76 299.5,358.59l-1009.46 559.44 -118.81 -220.51zm-8110.04 -1496.5l292.68 0 0 1466.56c0,194.63 -42.56,350.3 -127.66,467.05 -122.51,166.08 -324.88,249.13 -606.66,249.13l-165.58 0 0 -273.99 205.51 0c122.51,0 220.57,-34.27 292.68,-103.31 72.64,-69.03 109.02,-168.66 109.02,-299.45l0 -1505.99zm1759.19 2182.73l0 -863c0,-115.74 -44.11,-211.72 -132.31,-288.54 -89.29,-75.3 -209.15,-112.61 -359.64,-112.61 -118.83,0 -222.64,34.21 -312.39,103.27 -117.82,89.24 -176.5,223.14 -176.5,401.64 0,161.94 50.89,292.68 152.63,391.8 93.41,91.34 205.47,137.02 336.26,137.02 144.28,0 272.41,-69.55 384,-208.08l0 329.48c-81.42,51.96 -135.95,84.6 -164.5,97.54 -66.93,28.56 -147.84,42.6 -243.31,42.6 -193.63,0 -361.74,-69.53 -505,-208.13 -156.23,-151.01 -234.01,-345.14 -234.01,-582.24 0,-220 65.39,-399.57 196.15,-538.62 141.66,-152.07 338.33,-227.89 589.51,-227.89 234.05,0 420.31,69.6 559.41,208.13 126.65,127.08 189.98,285.92 189.98,477.46l0 839.1 -280.26 1.06zm567.23 -2182.73l273.99 0 0 1239.26 139.59 0c69.03,-6.21 120.89,-24.91 156.17,-56.56 32.66,-29.06 77.37,-97.58 133.89,-205.5l170.27 -289.04 311.89 0c-78.89,132.86 -159.34,265.7 -240.32,398.57 -80.46,135.41 -148.94,206.51 -205.45,214.81 124.53,19.2 218.44,69.03 281.26,148.94 51.85,69.03 77.83,153.03 77.83,252.24l0 480.01 -274.04 0 0 -394.93c0,-93.91 -18.64,-166.08 -56.05,-215.31 -37.34,-47.77 -101.68,-71.67 -193.02,-71.67l-302.03 0 0 681.91 -273.99 0 0 -2182.73zm1306.65 1927.39l749.37 0 22.85 6.21c51.91,-6.21 88.74,-14.55 111.09,-24.41 43.56,-23.31 65.35,-59.64 65.35,-109.47 0,-78.89 -78.35,-144.24 -235.62,-196.21 -124.53,-35.27 -220.52,-63.28 -287.44,-83.45 -146.92,-50.94 -251.69,-103.86 -314.48,-159.86 -74.23,-65.9 -111.13,-155.2 -111.13,-267.26 0,-147.36 56.62,-255.38 170.27,-324.37 86.64,-51.34 200.3,-77.32 339.89,-77.32l644.51 0 0 261.54 -697.42 0c-114.67,0 -171.73,44.64 -171.73,133.94 6.21,59.65 60.18,109.48 162.39,148.89 32.7,11.93 128.73,37.91 288.54,77.34 176.44,50.83 304.11,116.28 382.96,196.14 73.22,75.26 109.47,169.68 109.47,284.4 0,153.1 -59.09,262.1 -177.96,326.96 -76.83,41.49 -179.58,62.27 -308.27,62.27l-92.33 0 -650.31 0 0 -255.34z"/>
   <path class="fil1" d="M5687.46 3260.07c0,204.96 11.56,464.25 -198.32,577.92 -98,53.05 -278.36,81.18 -542.4,79.9l-4903.95 -23.76 0 495.33 5181.21 23.77c273.53,1.19 495.38,-80.87 663.67,-242.54 258.32,-248.05 283.84,-445.31 283.84,-910.61l0.78 0 0 -1763.01c0,-341.65 95.07,-608.46 283.58,-801.01 158.48,-161.88 347.99,-243.08 568.97,-243.08 235.62,0 440.94,81.05 617.8,243.08 177.72,164.79 266.94,386.69 266.94,662.83 0,273.47 -73.64,498.14 -220.93,674.91 -151.03,175.84 -354.5,264.27 -609.46,264.27 -140.93,0 -276.2,-29.52 -407.87,-89.35 -3.74,-3.73 -105,-52.51 -304.75,-148.2l0 510.01c154.7,83.83 289.08,137.2 404.14,158.35 110.49,22.1 231.1,33.17 364.62,33.17 445.55,0 781.61,-169.39 1006.23,-507.32 168.52,-253.17 253.22,-551.47 253.22,-894.85 0,-324.09 -104.87,-616.83 -315.77,-880.13 -256.85,-319.49 -612.26,-479.73 -1065.27,-479.73 -339.66,0 -631.24,106.4 -879.2,315.77 -297.07,250.96 -447.48,604.94 -447.48,1065.23l0 1879.08 0.41 0zm1350 -2239.43c209,0 378.34,169.5 378.34,378.41 0,208.95 -169.34,378.34 -378.34,378.34 -209.01,0 -378.36,-169.39 -378.36,-378.34 0,-208.91 169.35,-378.41 378.36,-378.41z"/>
   <path class="fil0" d="M332.33 5933.13c31.24,0 59.92,-5.89 86.18,-17.67 26.11,-11.76 48.44,-27.76 67.16,-47.99 18.56,-20.22 33.2,-43.92 43.62,-71.08 10.56,-27.17 15.84,-56.15 15.84,-86.94l0 -1.82c0,-30.78 -5.28,-59.91 -15.84,-87.38 -10.42,-27.47 -25.21,-51.32 -44.07,-71.54 -19.02,-20.23 -41.66,-36.38 -68.07,-48.45 -26.56,-12.07 -55.39,-18.11 -86.63,-18.11 -31.25,0 -59.92,5.89 -86.18,17.67 -26.11,11.77 -48.45,27.77 -67.16,48 -18.57,20.22 -33.21,43.91 -43.62,71.07 -10.56,27.18 -15.84,56.16 -15.84,86.94l0 1.81c0,30.79 5.28,59.93 15.84,87.4 10.41,27.46 25.21,51.3 44.07,71.53 19.02,20.22 41.65,36.38 68.07,48.45 26.56,12.07 55.39,18.11 86.63,18.11zm-1.81 102.32c-48.91,0 -93.58,-8.6 -134.03,-25.8 -40.45,-17.21 -75.16,-40.6 -104.13,-70.18 -28.98,-29.58 -51.61,-64.14 -67.92,-103.68 -16.3,-39.55 -24.45,-81.65 -24.45,-126.33l0 -1.82c0,-44.67 8.15,-86.78 24.45,-126.32 16.31,-39.54 39.24,-74.25 68.83,-104.13 29.57,-29.88 64.59,-53.58 105.03,-71.08 40.45,-17.51 85.12,-26.26 134.02,-26.26 48.91,0 93.58,8.6 134.03,25.8 40.45,17.21 75.16,40.6 104.13,70.17 28.98,29.59 51.61,64.15 67.91,103.7 16.3,39.54 24.46,81.64 24.46,126.32l0 1.81c0,44.68 -8.16,86.79 -24.46,126.33 -16.3,39.54 -39.24,74.25 -68.82,104.13 -29.57,29.88 -64.59,53.58 -105.03,71.09 -40.45,17.51 -85.12,26.25 -134.02,26.25zm961.68 -1.81c-48.91,0 -95.69,-8.31 -140.36,-24.91 -44.68,-16.6 -86.03,-42.1 -124.06,-76.52l67.01 -79.69c30.79,26.56 61.88,46.93 93.27,61.12 31.39,14.18 67.01,21.28 106.86,21.28 34.4,0 61.72,-7.24 81.95,-21.72 20.22,-14.49 30.33,-33.81 30.33,-57.96l0 -1.81c0,-11.47 -1.96,-21.59 -5.89,-30.34 -3.93,-8.75 -11.17,-17.05 -21.73,-24.9 -10.71,-7.85 -25.21,-15.09 -43.62,-21.72 -18.56,-6.65 -42.55,-13.29 -72.14,-19.93 -33.95,-7.85 -63.99,-16.75 -90.4,-26.71 -26.26,-9.96 -48.46,-22.03 -66.26,-36.22 -17.8,-14.19 -31.55,-31.55 -40.9,-52.07 -9.37,-20.53 -14.03,-45.28 -14.03,-74.26l0 -1.82c0,-27.16 5.43,-52.07 16.14,-74.7 10.87,-22.64 25.66,-41.96 44.53,-57.96 18.87,-15.99 41.5,-28.52 68.07,-37.57 26.41,-9.06 55.39,-13.59 86.79,-13.59 46.47,0 88.29,6.79 125.41,20.38 37.13,13.59 71.99,33.35 104.59,59.31l-59.77 84.22c-28.98,-21.13 -57.65,-37.28 -86.03,-48.44 -28.37,-11.18 -57.04,-16.76 -86.02,-16.76 -32.61,0 -57.95,7.24 -76.08,21.72 -18.1,14.49 -27.16,32.31 -27.16,53.43l0 1.81c0,12.08 2.11,22.79 6.34,32.15 4.22,9.36 11.92,17.8 23.09,25.36 11.31,7.55 26.7,14.64 46.33,21.29 19.77,6.63 44.68,13.58 75.01,20.83 33.21,8.45 62.79,17.8 88.44,28.07 25.65,10.26 47.08,22.79 63.99,37.58 16.91,14.79 29.88,32 38.63,51.61 8.76,19.63 13.14,42.41 13.14,68.38l0 1.81c0,29.57 -5.59,56.15 -16.61,79.69 -11.16,23.54 -26.55,43.46 -46.33,59.77 -19.62,16.3 -43.47,28.67 -71.09,37.13 -27.76,8.46 -58.25,12.68 -91.45,12.68zm356.77 -642.93l469.07 0 0 100.51 -358.6 0 0 162.99 317.85 0 0 100.52 -317.85 0 0 169.33 363.13 0 0 100.51 -473.59 0 0 -633.88zm866.6 643.84c-41.06,0 -78.18,-5.89 -111.39,-17.67 -33.2,-11.77 -61.56,-29.43 -85.11,-52.97 -23.55,-23.55 -41.65,-52.68 -54.34,-87.4 -12.67,-34.71 -19,-75 -19,-120.88l0 -364.93 110.47 0 0 360.4c0,59.16 14.33,104.13 42.86,134.93 28.53,30.78 67.92,46.18 118.33,46.18 49.79,0 88.88,-14.79 117.42,-44.37 28.52,-29.58 42.85,-73.66 42.85,-132.21l0 -364.93 110.48 0 0 359.5c0,47.08 -6.49,88.43 -19.47,124.05 -12.98,35.61 -31.24,65.35 -54.78,89.19 -23.55,23.85 -52.07,41.65 -85.58,53.42 -33.5,11.77 -71.08,17.67 -112.73,17.67zm5275.2 -314.23c42.41,0 75.92,-10.55 100.37,-31.84 24.6,-21.13 36.83,-48.45 36.83,-81.8l0 -1.82c0,-37.57 -12.38,-65.94 -37.29,-84.96 -24.76,-19.17 -58.1,-28.68 -99.92,-28.68l-129.94 0 0 229.1 129.94 0zm-240.41 -329.61l249.92 0c36.82,0 70.17,4.99 100.07,14.94 29.87,9.96 55.24,24.3 76.06,43.01 20.84,18.71 36.84,41.06 48,67.01 11.16,25.96 16.75,54.94 16.75,86.94l0 1.81c0,35.62 -6.63,66.86 -19.92,93.73 -13.44,26.86 -31.54,49.34 -54.48,67.46 -23.09,18.11 -49.95,31.84 -80.73,41.21 -30.95,9.35 -63.85,14.03 -99.02,14.03l-126.17 0 0 203.74 -110.47 0 0 -633.88zm988.84 382.14l-109.57 -253.55 -108.66 253.55 218.23 0zm-159.37 -386.67l103.23 0 278.91 638.4 -117.72 0 -64.3 -153.03 -299.74 0 -65.19 153.03 -114.1 0 278.91 -638.4zm731.21 334.14c42.41,0 75.93,-10.55 100.37,-31.84 24.6,-21.13 36.83,-48.45 36.83,-81.8l0 -1.82c0,-37.57 -12.38,-65.94 -37.29,-84.96 -24.76,-19.17 -58.1,-28.68 -99.92,-28.68l-129.94 0 0 229.1 129.94 0zm-240.41 -329.61l249.92 0c36.83,0 70.17,4.99 100.07,14.94 29.88,9.96 55.24,24.3 76.06,43.01 20.84,18.71 36.84,41.06 48,67.01 11.17,25.96 16.75,54.94 16.75,86.94l0 1.81c0,35.62 -6.63,66.86 -19.92,93.73 -13.44,26.86 -31.54,49.34 -54.48,67.46 -23.09,18.11 -49.95,31.84 -80.73,41.21 -30.95,9.35 -63.85,14.03 -99.02,14.03l-126.17 0 0 203.74 -110.47 0 0 -633.88zm604.9 0l469.06 0 0 100.51 -358.59 0 0 162.99 317.85 0 0 100.52 -317.85 0 0 169.33 363.13 0 0 100.51 -473.59 0 0 -633.88zm606.72 0l110.47 0 0 533.36 333.24 0 0 100.51 -443.71 0 0 -633.88zm-6869.41 0l118.63 0 192.87 299.74 192.88 -299.74 118.63 0 0 633.88 -110.48 0 0 -454.58 -200.12 298.83 -3.62 0 -198.32 -297.01 0 452.77 -110.47 0 0 -633.88zm786.01 0l469.06 0 0 100.51 -358.59 0 0 162.99 317.85 0 0 100.52 -317.85 0 0 169.33 363.12 0 0 100.51 -473.58 0 0 -633.88zm606.72 0l110.47 0 0 533.36 333.24 0 0 100.51 -443.71 0 0 -633.88zm560.53 0l110.47 0 0 263.51 304.27 0 0 -263.51 110.48 0 0 633.88 -110.48 0 0 -267.13 -304.27 0 0 267.13 -110.47 0 0 -633.88zm992.45 542.42c31.25,0 59.93,-5.89 86.18,-17.67 26.11,-11.76 48.45,-27.76 67.16,-47.99 18.56,-20.22 33.21,-43.92 43.62,-71.08 10.56,-27.17 15.85,-56.15 15.85,-86.94l0 -1.82c0,-30.78 -5.29,-59.91 -15.85,-87.38 -10.41,-27.47 -25.2,-51.32 -44.07,-71.54 -19.01,-20.23 -41.66,-36.38 -68.07,-48.45 -26.56,-12.07 -55.39,-18.11 -86.63,-18.11 -31.24,0 -59.92,5.89 -86.18,17.67 -26.1,11.77 -48.44,27.77 -67.15,48 -18.57,20.22 -33.21,43.91 -43.62,71.07 -10.57,27.18 -15.85,56.16 -15.85,86.94l0 1.81c0,30.79 5.28,59.93 15.85,87.4 10.41,27.46 25.2,51.3 44.06,71.53 19.02,20.22 41.65,36.38 68.07,48.45 26.57,12.07 55.4,18.11 86.63,18.11zm-1.81 102.32c-48.91,0 -93.57,-8.6 -134.02,-25.8 -40.45,-17.21 -75.16,-40.6 -104.13,-70.18 -28.99,-29.58 -51.62,-64.14 -67.92,-103.68 -16.31,-39.55 -24.45,-81.65 -24.45,-126.33l0 -1.82c0,-44.67 8.14,-86.78 24.45,-126.32 16.3,-39.54 39.24,-74.25 68.82,-104.13 29.57,-29.88 64.6,-53.58 105.04,-71.08 40.45,-17.51 85.11,-26.26 134.01,-26.26 48.91,0 93.58,8.6 134.03,25.8 40.45,17.21 75.16,40.6 104.13,70.17 28.98,29.59 51.62,64.15 67.92,103.7 16.29,39.54 24.45,81.64 24.45,126.32l0 1.81c0,44.68 -8.16,86.79 -24.45,126.33 -16.3,39.54 -39.24,74.25 -68.82,104.13 -29.57,29.88 -64.6,53.58 -105.04,71.09 -40.45,17.51 -85.11,26.25 -134.02,26.25zm741.18 -330.52c40,0 71.85,-9.51 95.38,-28.67 23.7,-19.02 35.47,-44.98 35.47,-77.72l0 -1.82c0,-34.56 -11.46,-60.83 -34.55,-78.64 -22.94,-17.95 -55.4,-26.86 -97.2,-26.86l-162.55 0 0 213.71 163.45 0zm-273.92 -314.22l282.52 0c39.85,0 75.16,5.59 105.95,16.76 30.79,11.16 56.45,26.71 76.97,46.63 16.9,17.51 29.88,37.72 38.94,60.67 9.06,22.95 13.59,48.3 13.59,76.08l0 1.81c0,25.96 -3.78,49.34 -11.33,70.18 -7.54,20.83 -17.95,39.24 -31.24,55.24 -13.28,16 -29.13,29.57 -47.54,40.75 -18.4,11.17 -38.78,19.77 -61.12,25.8l171.15 239.97 -131.31 0 -156.2 -220.95 -1.82 0 -138.1 0 0 220.95 -110.47 0 0 -633.88z"/>
  </g>
 </g>
</svg>
